<?xml version="1.0" encoding="utf-8"?>
<!-- Generator: Adobe Illustrator 26.5.2, SVG Export Plug-In . SVG Version: 6.00 Build 0)  -->
<svg version="1.1" id="Layer_1" xmlns="http://www.w3.org/2000/svg" xmlns:xlink="http://www.w3.org/1999/xlink" x="0px" y="0px"
	 viewBox="0 0 180 180" style="enable-background:new 0 0 180 180;" xml:space="preserve">
<style type="text/css">
	.st0{fill:#0A4158;}
	.st1{fill:#FF9636;}
	.st2{fill:none;stroke:#0A4158;stroke-width:10.7412;stroke-miterlimit:10;}
</style>
<path class="st0" d="M89.84,13.3L23.27,51.74l13.31,7.68l26.62-15.37l39.94,23.06L76.52,82.48l13.31,7.69l66.57-38.43L89.84,13.3z
	 M76.52,36.36l13.31-7.68l39.94,23.06l-13.31,7.68L76.52,36.36z"/>
<polygon class="st1" points="156.41,69.13 103.98,99.88 103.98,115.25 156.41,84.51 156.41,130.63 90.88,169.06 90.88,153.69 
	142.73,123.27 142.73,107.9 90.88,138.31 90.88,92.19 156.41,53.76 "/>
<polygon class="st1" points="23.44,53.77 23.44,69.14 50.19,84.88 50.19,130.99 23.27,115.16 23.27,130.53 88.76,169.05 
	88.76,153.68 63.05,138.56 63.05,92.44 88.76,107.56 88.76,92.19 "/>
<circle class="st2" cx="89.84" cy="90.17" r="83.76"/>
</svg>
